<svg width="16" height="17" viewBox="0 0 16 17" fill="#8252E9" xmlns="http://www.w3.org/2000/svg">
<path d="M4.49563 16.5C4.08188 16.5 3.72917 16.3527 3.4375 16.0581C3.14583 15.7635 3 15.4094 3 14.9956C3 14.5819 3.14729 14.2292 3.44188 13.9375C3.73646 13.6458 4.09063 13.5 4.50438 13.5C4.91813 13.5 5.27083 13.6473 5.5625 13.9419C5.85417 14.2365 6 14.5906 6 15.0044C6 15.4181 5.85271 15.7708 5.55813 16.0625C5.26354 16.3542 4.90938 16.5 4.49563 16.5ZM13.4956 16.5C13.0819 16.5 12.7292 16.3527 12.4375 16.0581C12.1458 15.7635 12 15.4094 12 14.9956C12 14.5819 12.1473 14.2292 12.4419 13.9375C12.7365 13.6458 13.0906 13.5 13.5044 13.5C13.9181 13.5 14.2708 13.6473 14.5625 13.9419C14.8542 14.2365 15 14.5906 15 15.0044C15 15.4181 14.8527 15.7708 14.5581 16.0625C14.2635 16.3542 13.9094 16.5 13.4956 16.5ZM4.27083 4L6 8H12.2708L13.9792 4H4.27083ZM3.625 2.5H15.5C15.6944 2.5 15.8368 2.57639 15.9271 2.72917C16.0174 2.88194 16.0278 3.04167 15.9583 3.20833L13.6381 8.58042C13.5183 8.86014 13.3368 9.08333 13.0938 9.25C12.8507 9.41667 12.5764 9.5 12.2708 9.5H5.60417L4.72917 11H14.25C14.4625 11 14.6406 11.0715 14.7844 11.2144C14.9281 11.3573 15 11.5344 15 11.7456C15 11.9569 14.9281 12.1354 14.7844 12.2812C14.6406 12.4271 14.4625 12.5 14.25 12.5H4.75C4.15278 12.5 3.71181 12.249 3.42708 11.7469C3.14236 11.2447 3.14583 10.7457 3.4375 10.25L4.52083 8.375L1.79167 2H0.75C0.5375 2 0.359375 1.92854 0.215625 1.78563C0.071875 1.64271 0 1.46563 0 1.25438C0 1.04313 0.071875 0.864583 0.215625 0.71875C0.359375 0.572917 0.5375 0.5 0.75 0.5H2.27083C2.42361 0.5 2.55903 0.541667 2.67708 0.625C2.79514 0.708333 2.88889 0.819444 2.95833 0.958333L3.625 2.5Z"/>
</svg>
